<svg xmlns="http://www.w3.org/2000/svg" viewBox="0 0 255 255"><defs><clipPath id="a"><path d="M0 0h255v255H0z"/></clipPath></defs><g data-name="Web 1920 – 1" clip-path="url(#a)"><circle data-name="Ellipse 1" cx="127.5" cy="127.5" r="127.5"/><path data-name="Line 1" fill="none" d="M89.5 248.5h76"/><path data-name="Path 3" d="M127.5 0a127.5 127.5 0 0 0-40.3 248.5c6.4 1.2 8.7-2.8 8.7-6.1l-.2-23.8c-35.4 7.7-43-15-43-15-5.7-14.8-14-18.7-14-18.7-11.6-7.9.8-7.7.8-7.7 12.8.9 19.5 13.1 19.5 13.1C70.4 209.8 89 204.2 96.1 201a27.1 27.1 0 0 1 8.1-17c-28.3-3.3-58-14.2-58-63a49.3 49.3 0 0 1 13-34.3A45.8 45.8 0 0 1 60.6 53s10.7-3.4 35 13a121 121 0 0 1 64 0c24.3-16.5 35-13 35-13 7 17.5 2.5 30.5 1.2 33.7a49.2 49.2 0 0 1 13.1 34.2c0 49-29.8 59.8-58.2 63 4.6 4 8.7 11.7 8.7 23.6l-.2 35c0 3.4 2.3 7.3 8.8 6A127.5 127.5 0 0 0 127.5 0" fill="#fff"/></g></svg>