<svg xmlns="http://www.w3.org/2000/svg" viewBox="0 0 65.8 65.8"><g data-name="Group 1" transform="translate(-625 -531)"><circle data-name="Ellipse 1" cx="32.9" cy="32.9" r="32.9" transform="translate(625 531)" fill="#e0e0e0"/><circle data-name="Ellipse 2" cx="32.4" cy="32.4" r="32.4" transform="translate(625.5 531)" fill="#fff"/><path data-name="Path 2" d="M678.9 559.6h-20.5v8.5h11.8c-1.1 5.4-5.7 8.5-11.8 8.5a13 13 0 0 1-13-13 13 13 0 0 1 13-13 12.7 12.7 0 0 1 8.1 2.9l6.4-6.4a21.9 21.9 0 0 0-14.5-5.5 22 22 0 0 0-22 22 22 22 0 0 0 22 22c11 0 21-8 21-22a18.3 18.3 0 0 0-.5-4Z"/><path data-name="Path 4" d="M678.9 559.6h-20.5v8.5h11.8c-1.1 5.4-5.7 8.5-11.8 8.5a13 13 0 0 1-13-13 13 13 0 0 1 13-13 12.7 12.7 0 0 1 8.1 2.9l6.4-6.4a21.9 21.9 0 0 0-14.5-5.5 22 22 0 0 0-22 22 22 22 0 0 0 22 22c11 0 21-8 21-22a18.3 18.3 0 0 0-.5-4Z"/><path data-name="Path 6" d="M678.9 559.6h-20.5v8.5h11.8c-1.1 5.4-5.7 8.5-11.8 8.5a13 13 0 0 1-13-13 13 13 0 0 1 13-13 12.7 12.7 0 0 1 8.1 2.9l6.4-6.4a21.9 21.9 0 0 0-14.5-5.5 22 22 0 0 0-22 22 22 22 0 0 0 22 22c11 0 21-8 21-22a18.3 18.3 0 0 0-.5-4Z"/><path data-name="Path 8" d="M678.9 559.6h-20.5v8.5h11.8c-1.1 5.4-5.7 8.5-11.8 8.5a13 13 0 0 1-13-13 13 13 0 0 1 13-13 12.7 12.7 0 0 1 8.1 2.9l6.4-6.4a21.9 21.9 0 0 0-14.5-5.5 22 22 0 0 0-22 22 22 22 0 0 0 22 22c11 0 21-8 21-22a18.3 18.3 0 0 0-.5-4Z"/></g></svg>